<svg width="85" height="73" viewBox="0 0 85 73" fill="none" xmlns="http://www.w3.org/2000/svg">
<path d="M31.9002 2.30001C36.3002 4.40001 39.5002 7.70001 42.3002 11.8C42.8002 11.1 43.2002 10.5 43.6002 10C47.4002 4.70001 52.5002 1.20001 59.1002 0.400006C67.8002 -0.699994 76.5002 3.10001 80.9002 11.5C86.0002 21.1 85.1002 30.5 79.1002 39.5C75.4002 45 70.7002 49.5 65.7002 53.8C59.1002 59.4 52.4002 64.8 45.8002 70.4C45.4002 70.7333 45.0002 71.0333 44.6002 71.3C42.9002 72.6 41.5002 72.6 39.9002 71.3C35.5669 67.7 31.2336 64.1333 26.9002 60.6C21.3002 56 15.8002 51.4 10.8002 46.2C6.90023 42 3.40023 37.4 1.60023 31.8C-1.49977 22 1.40023 9.30001 11.2002 3.40001C17.8002 -0.499994 24.8002 -0.799994 31.9002 2.30001ZM12.8002 10.8C6.70023 16.7 5.60023 26.5 10.1002 34C13.1002 39.2 17.4002 43.3 21.8002 47.3C28.2002 53 34.9002 58.2 41.4002 63.7C42.1002 64.3 42.5002 64.1 43.2002 63.6C48.5002 59.1 54.0002 54.7 59.3002 50.2C64.0002 46.3 68.5002 42.2 72.3002 37.3C77.3002 30.6 78.9002 23.4 75.3002 15.5C71.7002 7.70001 61.5002 4.70001 54.2002 9.20001C50.0002 11.9 47.4002 15.9 45.7002 20.6C45.0002 22.4 43.9002 23.3 42.2002 23.3C40.6002 23.3 39.4669 22.4 38.8002 20.6C37.8669 17.8 36.4669 15.2333 34.6002 12.9C29.0002 6.10001 19.6002 5.10001 12.8002 10.8Z" fill="#3A9659"/>
<path d="M41.7002 40.8001C45.9002 33.5001 50.1002 26.2001 54.3002 19.0001C55.4335 17.0001 57.0335 16.1334 59.1002 16.4001C60.7002 16.7001 62.1002 17.9001 62.5002 19.7001C62.9002 21.0001 62.4002 22.2001 61.8002 23.3001C56.8669 31.7668 51.9669 40.2668 47.1002 48.8001C46.3002 50.1001 45.6002 51.5001 44.6002 52.7001C42.5002 55.2001 39.0002 55.1001 37.4002 52.3001C34.6002 47.5668 31.8669 42.8334 29.2002 38.1001C28.0002 35.9001 28.7002 33.4001 30.7002 32.2001C32.8002 31.0001 35.3002 31.7001 36.6002 33.8001C38.1002 36.3001 39.6002 38.9001 41.1002 41.4001C41.5002 41.4001 41.5002 41.1001 41.7002 40.8001Z" fill="#3A9659"/>
</svg>
