<svg width="80" height="80" viewBox="0 0 80 80" fill="none" xmlns="http://www.w3.org/2000/svg">
<path d="M80 40C80 62.0914 62.0914 80 40 80C17.9086 80 0 62.0914 0 40C0 17.9086 17.9086 0 40 0C62.0914 0 80 17.9086 80 40ZM8 40C8 57.6731 22.3269 72 40 72C57.6731 72 72 57.6731 72 40C72 22.3269 57.6731 8 40 8C22.3269 8 8 22.3269 8 40Z" fill="#A6D4B6"/>
<path d="M76 40C78.2091 40 80.0207 41.7953 79.8002 43.9934C79.2006 49.9687 77.2612 55.7505 74.1056 60.8999C70.2512 67.1898 64.7325 72.2912 58.1596 75.6403C51.5868 78.9893 44.2158 80.4555 36.8616 79.8767C29.5075 79.2979 22.4566 76.6967 16.4886 72.3607C10.5206 68.0247 5.86784 62.1227 3.04482 55.3073C0.221804 48.492 -0.661534 41.0287 0.492466 33.7426C1.64647 26.4566 4.79285 19.6315 9.58376 14.0221C13.5061 9.42966 18.4055 5.79846 23.9031 3.38182C25.9255 2.49282 28.1927 3.66095 28.8754 5.76197C29.558 7.86298 28.3937 10.0972 26.3942 11.0365C22.2915 12.9638 18.6306 15.7478 15.667 19.2177C11.8343 23.7052 9.31717 29.1652 8.39397 34.9941C7.47077 40.823 8.17744 46.7936 10.4359 52.2459C12.6943 57.6982 16.4164 62.4197 21.1909 65.8885C25.9653 69.3574 31.606 71.4383 37.4893 71.9014C43.3726 72.3644 49.2694 71.1914 54.5277 68.5122C59.786 65.833 64.201 61.7518 67.2845 56.72C69.6688 52.8292 71.1852 48.4872 71.7503 43.9897C72.0258 41.7978 73.7909 40 76 40Z" fill="#3A9659"/>
<path d="M48.9715 24.0018C50.0767 22.0874 52.5248 21.4317 54.4392 22.537C56.3536 23.6423 57.0094 26.0904 55.9041 28.0047L39.8943 55.7352C39.7042 56.0645 39.4727 56.355 39.2127 56.6073C38.8844 57.0898 38.4453 57.5078 37.906 57.8192C35.9917 58.9245 33.5436 58.2687 32.4383 56.3543L24.5369 42.6678C23.4317 40.7534 24.0874 38.3053 26.0017 37.2C27.9161 36.0949 30.3643 36.7515 31.4695 38.6659L35.9871 46.4911L48.9715 24.0018Z" fill="#3A9659"/>
</svg>
